<?xml version="1.0" encoding="UTF-8"?>
<svg width="32px" height="32px" viewBox="0 0 32 32" version="1.1" xmlns="http://www.w3.org/2000/svg" xmlns:xlink="http://www.w3.org/1999/xlink">
    <title>Instagram</title>
    <g id="Instagram" stroke="none" stroke-width="1" fill="none" fill-rule="evenodd">
        <rect fill="#FFFFFF" x="0" y="0" width="32" height="32"></rect>
        <g id="Group" fill="#FFFFFF" fill-rule="nonzero">
            <path d="M26.6666667,0 L5.33333333,0 C2.38781467,0 0,2.38781467 0,5.33333333 L0,26.6666667 C0,29.6121853 2.38781467,32 5.33333333,32 L26.6666667,32 C29.6121853,32 32,29.6121853 32,26.6666667 L32,5.33333333 C32,2.38781467 29.6121853,0 26.6666667,0 Z M29.3333333,26.6666667 C29.3333333,28.139426 28.139426,29.3333333 26.6666667,29.3333333 L5.33333333,29.3333333 C3.860574,29.3333333 2.66666667,28.139426 2.66666667,26.6666667 L2.66666667,5.33333333 C2.66666667,3.860574 3.860574,2.66666667 5.33333333,2.66666667 L26.6666667,2.66666667 C28.139426,2.66666667 29.3333333,3.860574 29.3333333,5.33333333 L29.3333333,26.6666667 Z" id="Shape"></path>
            <path d="M16,8.25806452 C11.7242471,8.25806452 8.25806452,11.7242471 8.25806452,16 C8.25806452,20.2757529 11.7242471,23.7419355 16,23.7419355 C20.2757529,23.7419355 23.7419355,20.2757529 23.7419355,16 C23.7419355,13.946711 22.9262696,11.9775195 21.4743751,10.5256249 C20.0224805,9.07373038 18.053289,8.25806452 16,8.25806452 Z M16,21.1612903 C13.1494981,21.1612903 10.8387097,18.8505019 10.8387097,16 C10.8387097,13.1494981 13.1494981,10.8387097 16,10.8387097 C18.8505019,10.8387097 21.1612903,13.1494981 21.1612903,16 C21.1612903,17.3688593 20.6175131,18.6816537 19.6495834,19.6495834 C18.6816537,20.6175131 17.3688593,21.1612903 16,21.1612903 Z" id="Shape"></path>
            <circle id="Oval" cx="24.7741935" cy="7.22580645" r="2.06451613"></circle>
        </g>
    </g>
</svg>