<?xml version="1.0" encoding="UTF-8"?>
<svg width="32px" height="32px" viewBox="0 0 32 32" version="1.1" xmlns="http://www.w3.org/2000/svg" xmlns:xlink="http://www.w3.org/1999/xlink">
    <title>Mail</title>
    <g id="Mail" stroke="none" stroke-width="1" fill="none" fill-rule="evenodd">
        <rect fill="#FFFFFF" x="0" y="0" width="32" height="32"></rect>
        <g id="noun_Mail_3415659" transform="translate(0.000000, 6.000000)" fill="#FFFFFF" fill-rule="nonzero">
            <path d="M2.33707865,21 L29.6629213,21 C30.9812734,21 32,19.9261364 32,18.6732955 L32,4.95170455 L32,2.32670455 C32,1.01420455 30.9213483,0 29.6629213,0 L2.33707865,0 C1.01872659,0 0,1.07386364 0,2.32670455 L0,4.95170455 L0,18.6732955 C0,19.9261364 1.01872659,21 2.33707865,21 Z M29.6629213,18.7926136 L2.33707865,18.7926136 C2.27715356,18.7926136 2.21722846,18.7329545 2.21722846,18.6732955 L2.21722846,6.74147727 L15.4606742,13.3039773 C15.6404494,13.3636364 15.7602996,13.4232955 15.9400749,13.4232955 C16.1198502,13.4232955 16.2996255,13.3636364 16.4194757,13.3039773 L29.6629213,6.74147727 L29.6629213,18.6732955 C29.7827715,18.7329545 29.7228464,18.7926136 29.6629213,18.7926136 Z M2.21722846,2.32670455 C2.21722846,2.26704545 2.27715356,2.20738636 2.33707865,2.20738636 L29.6629213,2.20738636 C29.7228464,2.20738636 29.7827715,2.26704545 29.7827715,2.32670455 L29.7827715,4.23579545 L16,11.0369318 L2.21722846,4.23579545 L2.21722846,2.32670455 Z" id="Shape"></path>
        </g>
    </g>
</svg>